<?xml version="1.0" standalone="no"?><!DOCTYPE svg PUBLIC "-//W3C//DTD SVG 1.1//EN" "http://www.w3.org/Graphics/SVG/1.1/DTD/svg11.dtd"><svg t="1691936936246" class="icon" viewBox="0 0 1024 1024" version="1.1" xmlns="http://www.w3.org/2000/svg" p-id="3337" xmlns:xlink="http://www.w3.org/1999/xlink" width="200" height="200"><path d="M122.88 163.84c-45.17888 0-81.92 36.74112-81.92 81.92v491.52c0 45.17888 36.74112 81.92 81.92 81.92h451.584c-0.53248-6.77888-1.024-13.55776-1.024-20.48 0-6.92224 0.49152-13.70112 1.024-20.48H122.88c-22.58944 0-40.96-18.37056-40.96-40.96V245.76c0-22.58944 18.37056-40.96 40.96-40.96h778.24c22.58944 0 40.96 18.37056 40.96 40.96v340.31616c14.70464 8.51968 28.38528 18.5344 40.96 29.7984V245.76c0-45.17888-36.74112-81.92-81.92-81.92H122.88z m223.60064 122.88c-45.4656 0.8192-77.53728 22.28224-90.23488 52.49024-11.3664 26.99264-8.8064 57.2416-2.29376 86.50752-3.74784 6.18496-7.41376 14.9504-6.98368 26.43968a20.48 20.48 0 0 0 0 0.04096c0.55296 15.74912 6.5536 28.09856 12.94336 35.71712 3.2768 3.8912 4.54656 4.01408 7.41376 6.00064 3.2768 10.24 6.81984 20.5824 12.14464 27.68896 3.6864 4.9152 7.82336 7.20896 11.32544 10.6496 0.24576 8.45824 0.49152 16.30208 0.08192 24.22784-1.61792 3.2768-5.12 7.168-14.68416 12.00128-10.32192 5.20192-25.10848 10.32192-40.67328 17.08032-15.5648 6.7584-32.27648 15.27808-46.16192 29.4912-13.88544 14.17216-23.9616 34.52928-25.47712 59.53536A20.48 20.48 0 0 0 184.32 696.32h327.68a20.48 20.48 0 0 0 20.43904-21.7088c-1.49504-25.02656-11.59168-45.38368-25.47712-59.57632-13.88544-14.19264-30.63808-22.7328-46.20288-29.4912-15.5648-6.7584-30.33088-11.85792-40.67328-17.05984-9.5232-4.79232-13.02528-8.68352-14.6432-11.96032-0.4096-7.96672-0.16384-15.872 0.08192-24.41216 3.95264-3.72736 8.74496-6.26688 12.22656-11.30496 4.99712-7.20896 7.92576-17.16224 10.77248-26.97216 6.69696-4.83328 19.94752-16.03584 19.94752-39.36256 0-9.29792-4.73088-14.92992-7.43424-21.74976 4.87424-15.72864 10.6496-39.3216 8.04864-65.08544-1.41312-13.824-5.20192-28.34432-15.27808-40.5504-8.3968-10.1376-21.93408-16.0768-36.864-18.20672-11.83744-12.92288-28.4672-22.15936-50.0736-22.15936a20.48 20.48 0 0 0-0.38912 0z m0.512 41.00096c13.39392 0.08192 21.89312 7.45472 23.28576 9.91232a20.48 20.48 0 0 0 17.8176 10.36288c9.216 0 11.48928 1.96608 14.1312 5.16096 2.6624 3.21536 5.20192 9.74848 6.08256 18.59584 1.80224 17.73568-3.3792 42.68032-6.7584 52.79744a20.48 20.48 0 0 0 4.89472 20.84864c-3.93216-3.93216 1.06496 1.98656 1.06496 9.07264 0 3.74784-6.26688 9.35936-6.26688 9.35936a20.48 20.48 0 0 0-9.3184 14.45888c-0.96256 6.73792-4.11648 13.76256-7.84384 19.1488s-9.0112 9.0112-7.8848 8.47872a20.48 20.48 0 0 0-11.63264 18.47296c0 12.04224-1.4336 23.36768 0.08192 40.05888a20.48 20.48 0 0 0 1.18784 5.3248c6.69696 17.94048 21.66784 28.11904 35.84 35.26656 14.19264 7.14752 29.24544 12.1856 42.8032 18.08384 13.55776 5.87776 25.2928 12.4928 33.19808 20.56192 2.7648 2.82624 2.84672 8.33536 4.85376 11.6736H213.79072c2.00704-3.33824 2.08896-8.84736 4.85376-11.6736 7.90528-8.0896 19.64032-14.68416 33.1776-20.56192 13.57824-5.89824 28.63104-10.93632 42.8032-18.08384 14.19264-7.168 29.184-17.36704 35.84-35.328a20.48 20.48 0 0 0 1.2288-5.26336c1.47456-16.6912 0.06144-28.01664 0.06144-40.05888a20.48 20.48 0 0 0-10.9568-18.14528c3.1744 1.65888-4.15744-3.33824-8.56064-9.216-4.4032-5.85728-7.9872-13.25056-8.72448-18.67776a20.48 20.48 0 0 0-11.4688-15.70816s0.6144 0.53248-0.7168-1.024c-1.3312-1.59744-3.19488-4.096-3.44064-10.93632-0.06144-2.048 2.048-5.28384 2.048-5.28384a20.48 20.48 0 0 0 5.26336-19.5584c-7.20896-27.648-8.06912-54.43584-1.20832-70.7584 6.8608-16.2816 18.37056-26.66496 53.00224-27.36128zM593.92 368.64a20.48 20.48 0 1 0 0 40.96h245.76a20.48 20.48 0 1 0 0-40.96H593.92z m0 102.4a20.48 20.48 0 1 0 0 40.96h245.76a20.48 20.48 0 1 0 0-40.96H593.92z m0 102.4a20.48 20.48 0 1 0 0 40.96h89.51808c38.912-25.84576 85.56544-40.96 135.76192-40.96H593.92z m225.28 40.96c-112.64 0-204.8 92.16-204.8 204.8s92.16 204.8 204.8 204.8 204.8-92.16 204.8-204.8-92.16-204.8-204.8-204.8z m0 40.96c90.112 0 163.84 73.728 163.84 163.84s-73.728 163.84-163.84 163.84-163.84-73.728-163.84-163.84 73.728-163.84 163.84-163.84z m88.064 69.632l-110.592 129.024-67.584-51.2-24.576 32.768 96.256 73.728 137.216-157.696-30.72-26.624z" p-id="3338"></path></svg>