<?xml version="1.0" standalone="no"?><!DOCTYPE svg PUBLIC "-//W3C//DTD SVG 1.1//EN" "http://www.w3.org/Graphics/SVG/1.1/DTD/svg11.dtd"><svg t="1689432211480" class="icon" viewBox="0 0 1024 1024" version="1.1" xmlns="http://www.w3.org/2000/svg" p-id="5316" xmlns:xlink="http://www.w3.org/1999/xlink" width="200" height="200"><path d="M561.5 675.5v-29.6c78.2-16.8 113.7-74.4 129.7-137.2 4.2 1.4 8.6 2.2 13.2 2.2 26.4 0 48.2-25.8 48.2-57.4 0-25.1-13.8-46.3-32.7-54.1 10.2-49.9 14.6-134.9-0.2-191.6 0 0-62.6-80.4-186.8-94C408.7 99.8 306.3 172 301.3 282c-2.2 50-1.4 90.4 2.1 117.8-18.4 8.1-31.6 29.2-31.6 53.9 0 31.7 21.5 57.4 48.2 57.4 4.5 0 9-0.8 13.2-2.2 16 62.7 51.5 120.3 129.4 137.2v28.7c-3.3 0.5-6.6 1.2-9.9 1.9-144.3 16-259.4 89.3-290.7 183.7-8.4 25.3 9.7 51.7 35.4 51.7h629.1c25.7 0 43.8-26.6 35.3-52-32-96.4-151.6-170.8-300.3-184.6z m0 0" p-id="5317"></path></svg>