<?xml version="1.0" standalone="no"?><!DOCTYPE svg PUBLIC "-//W3C//DTD SVG 1.1//EN" "http://www.w3.org/Graphics/SVG/1.1/DTD/svg11.dtd"><svg t="1691891043829" class="icon" viewBox="0 0 1024 1024" version="1.1" xmlns="http://www.w3.org/2000/svg" p-id="4903" xmlns:xlink="http://www.w3.org/1999/xlink" width="200" height="200"><path d="M877.714286 731.428571V438.857143H585.142857V292.571429h146.285714V0H292.571429v292.571429h219.428571v153.6L146.285714 438.857143v292.571428H0v292.571429h292.571429v-292.571429H219.428571V512h292.571429v219.428571H365.714286v292.571429h292.571428v-292.571429H585.142857V512h219.428572v219.428571h-73.142858v292.571429h292.571429v-292.571429h-146.285714zM365.714286 73.142857h292.571428v146.285714H365.714286V73.142857zM219.428571 950.857143H73.142857v-146.285714h146.285714v146.285714z m365.714286 0H438.857143v-146.285714h146.285714v146.285714z m365.714286 0h-146.285714v-146.285714h146.285714v146.285714z" fill="#A1B6C3" p-id="4904"></path></svg>