<?xml version="1.0" standalone="no"?><!DOCTYPE svg PUBLIC "-//W3C//DTD SVG 1.1//EN" "http://www.w3.org/Graphics/SVG/1.1/DTD/svg11.dtd"><svg t="1689501203808" class="icon" viewBox="0 0 1024 1024" version="1.1" xmlns="http://www.w3.org/2000/svg" p-id="10611" xmlns:xlink="http://www.w3.org/1999/xlink" width="200" height="200"><path d="M904 621.1H770.3c-0.1-0.1-0.1-0.2-0.2-0.3l-144-224.2c-1.7-3-3.6-5.9-5.6-8.7-0.4-0.7-0.9-1.3-1.4-2-18-24-45.7-39.4-76.8-39.4h-63.8c-28.2 0-53.6 12.7-71.5 32.9-1.9 1.5-3.5 3.4-4.9 5.5l-2.3 3.6c-1.6 2.3-3.2 4.7-4.6 7.2l-142.6 222c-0.7 1.1-1.3 2.2-1.8 3.4h-130c-13.3 0-24 10.7-24 24s10.7 24 24 24h44.9v217.6c0 13.3 10.7 24 24 24h645.5c13.3 0 24-10.7 24-24V669.1H904c13.3 0 24-10.7 24-24s-10.7-24-24-24z m-190.8 0h-72.8V507.8l72.8 113.3zM542.3 394.6c15.3 0 29.1 7.8 38.3 19.9l4.7 7.4c4.6 8.5 7.2 18.4 7.2 29v170.2H428.3V450.8c0-10.8 2.7-20.8 7.4-29.4l4.2-6.6c9.2-12.4 23.1-20.3 38.5-20.3h63.9z m-162 113.1v113.4h-72.8l72.8-113.4z m430.8 355H213.6V669.1h597.5v193.6zM511.4 337.4c62.5 0 113.3-50.8 113.3-113.3s-50.8-113.3-113.3-113.3S398 161.6 398 224.1s50.9 113.3 113.4 113.3z m0-178.6c36 0 65.3 29.3 65.3 65.3s-29.3 65.3-65.3 65.3-65.3-29.3-65.3-65.3 29.2-65.3 65.3-65.3z" p-id="10612"></path></svg>