<?xml version="1.0" standalone="no"?><!DOCTYPE svg PUBLIC "-//W3C//DTD SVG 1.1//EN" "http://www.w3.org/Graphics/SVG/1.1/DTD/svg11.dtd"><svg t="1689498871738" class="icon" viewBox="0 0 1024 1024" version="1.1" xmlns="http://www.w3.org/2000/svg" p-id="2518" xmlns:xlink="http://www.w3.org/1999/xlink" width="200" height="200"><path d="M128 889.6V134c0-3.3-2.7-6-6-6H70c-3.3 0-6 2.7-6 6v813.6c0 6.6 5.4 12 12 12h878.2c3.3 0 6-2.7 6-6v-52c0-3.3-2.7-6-6-6H134c-3.3 0-6-2.7-6-6z" p-id="2519"></path><path d="M372.1 576.4H204c-6.6 0-12 5.4-12 12v231.7c0 6.6 5.4 12 12 12h168c6.6 0 12-5.4 12-12V588.4c0.1-6.6-5.3-12-11.9-12z m-58 191.7h-52c-3.3 0-6-2.7-6-6V646.4c0-3.3 2.7-6 6-6h52c3.3 0 6 2.7 6 6v115.7c0 3.3-2.7 6-6 6z m314-512.1h-168c-6.6 0-12 5.4-12 12v552.1c0 6.6 5.4 12 12 12h168c6.6 0 12-5.4 12-12V268c0-6.7-5.3-12-12-12z m-58 512.1h-52c-3.3 0-6-2.7-6-6V326c0-3.3 2.7-6 6-6h52c3.3 0 6 2.7 6 6v436.1c0 3.3-2.7 6-6 6z m314.1-319.9h-168c-6.6 0-12 5.4-12 12v359.9c0 6.6 5.4 12 12 12h168c6.6 0 12-5.4 12-12V460.2c0-6.6-5.4-12-12-12z m-58 319.9h-52c-3.3 0-6-2.7-6-6V518.2c0-3.3 2.7-6 6-6h52c3.3 0 6 2.7 6 6v243.9c0 3.3-2.7 6-6 6z" p-id="2520"></path></svg>