<?xml version="1.0" standalone="no"?><!DOCTYPE svg PUBLIC "-//W3C//DTD SVG 1.1//EN" "http://www.w3.org/Graphics/SVG/1.1/DTD/svg11.dtd"><svg t="1689501630995" class="icon" viewBox="0 0 1024 1024" version="1.1" xmlns="http://www.w3.org/2000/svg" p-id="14865" xmlns:xlink="http://www.w3.org/1999/xlink" width="200" height="200"><path d="M67.476211 956.739368v-565.894736a107.789474 107.789474 0 0 1 107.789473-107.789474h107.62779v-107.789474a107.978105 107.978105 0 0 1 107.789473-107.789473h269.473685a107.951158 107.951158 0 0 1 107.789473 107.789473v323.206737h134.736842a53.894737 53.894737 0 0 1 53.894737 53.894737v404.210526h-323.368421v-404.210526a53.894737 53.894737 0 0 1 53.894737-53.894737h27.109053l-0.161685-296.259368a80.842105 80.842105 0 0 0-80.842105-80.842106h-215.578947a80.976842 80.976842 0 0 0-80.842105 80.842106v80.842105h107.951157a107.951158 107.951158 0 0 1 107.789474 107.789474v565.894736z m619.627789-377.263157v323.368421h215.578947v-323.368421a26.947368 26.947368 0 0 0-26.947368-26.947369h-107.789474v0.323369h-53.733052v-0.323369h-0.161685a26.947368 26.947368 0 0 0-27.001263 26.677895z m-565.733053-161.684211v485.052632h377.263158v-485.052632a80.842105 80.842105 0 0 0-80.842105-80.842105h-215.578947a80.842105 80.842105 0 0 0-80.842106 80.842105z m592.680421 350.315789v-53.894736h107.789474v53.894736z m-431.157894-26.947368v-53.894737h161.68421v53.894737z m-107.789474 0v-53.894737h53.894737v53.894737z m538.947368-80.842105v-53.894737h107.789474v53.894737z m-431.157894-53.894737v-53.894737h161.68421v53.894737z m-107.789474 0v-53.894737h53.894737v53.894737z m107.789474-134.736842v-53.894737h161.68421v53.894737z m-107.789474 0v-53.894737h53.894737v53.894737z m404.210526-134.736842v-53.894737h53.894737v53.894737z m0-107.789474v-53.894737h53.894737v53.894737z m-161.68421 0v-53.894737h53.894737v53.894737z" p-id="14866"></path></svg>