<?xml version="1.0" standalone="no"?><!DOCTYPE svg PUBLIC "-//W3C//DTD SVG 1.1//EN" "http://www.w3.org/Graphics/SVG/1.1/DTD/svg11.dtd"><svg t="1689501478730" class="icon" viewBox="0 0 1024 1024" version="1.1" xmlns="http://www.w3.org/2000/svg" p-id="11663" xmlns:xlink="http://www.w3.org/1999/xlink" width="200" height="200"><path d="M911.913846 0L512 39.384615 112.086154 0C71.938462 0 39.384615 35.273846 39.384615 78.769231v827.076923c0 43.507692 32.553846 78.769231 72.701539 78.769231L512 1024l399.913846-39.384615c40.147692 0 72.701538-35.261538 72.701539-78.769231V78.769231c0-43.495385-32.553846-78.769231-72.701539-78.769231zM475.643077 946.461538l-354.461539-39.384615c-5.021538 0-9.095385-4.418462-9.095384-9.846154V87.384615c0-5.44 4.073846-9.846154 9.095384-9.846153l354.461539 39.384615z m436.270769-49.230769c0 5.427692-4.073846 9.846154-9.095384 9.846154l-354.461539 39.384615V116.923077l354.461539-39.384615c5.021538 0 9.095385 4.406154 9.095384 9.846153z" p-id="11664"></path></svg>