<?xml version="1.0" standalone="no"?><!DOCTYPE svg PUBLIC "-//W3C//DTD SVG 1.1//EN" "http://www.w3.org/Graphics/SVG/1.1/DTD/svg11.dtd"><svg t="1689500484006" class="icon" viewBox="0 0 1024 1024" version="1.1" xmlns="http://www.w3.org/2000/svg" p-id="5854" xmlns:xlink="http://www.w3.org/1999/xlink" width="200" height="200"><path d="M768 608a160 160 0 1 1-160 160 160 160 0 0 1 160-160z m0-32a192 192 0 1 0 192 192 192 192 0 0 0-192-192z" p-id="5855"></path><path d="M352 88v104h-48V88a24 24 0 0 1 48 0z m-48 152h48v56a24 24 0 0 1-48 0z m368-48v48h48v-48z m264 208H104a24 24 0 0 0 0 48h832a24 24 0 0 0 0-48z" p-id="5856"></path><path d="M864 768h-96v-64a16 16 0 0 0-32 0v80a16 16 0 0 0 16 16h112a16 16 0 0 0 0-32z" p-id="5857"></path><path d="M720 88v208a24 24 0 0 1-48 0V88a24 24 0 0 1 48 0z m240 168v296a24 24 0 0 1-48 0V256a16 16 0 0 0-16-16H720v-48h176a64 64 0 0 1 64 64z m-848 0v640a16 16 0 0 0 16 16h392a24 24 0 0 1 0 48H128a64 64 0 0 1-64-64V256a64 64 0 0 1 64-64h544v48H128a16 16 0 0 0-16 16z" p-id="5858"></path><path d="M200 576h128a21.28 21.28 0 0 1 24 24 21.28 21.28 0 0 1-24 24H200a24 24 0 0 1 0-48z m0 112h304a24 24 0 0 1 0 48H200a24 24 0 0 1 0-48z" p-id="5859"></path></svg>